<?xml version="1.0" encoding="utf-8"?>
<!-- Generator: Adobe Illustrator 21.0.1, SVG Export Plug-In . SVG Version: 6.00 Build 0)  -->
<svg version="1.1" id="Layer_1" xmlns="http://www.w3.org/2000/svg" xmlns:xlink="http://www.w3.org/1999/xlink" x="0px" y="0px"
	 viewBox="0 0 202.5 186.5" style="enable-background:new 0 0 202.5 186.5;" xml:space="preserve">
<style type="text/css">
	.st0{fill:none;stroke:#000000;stroke-width:2;stroke-miterlimit:10;}
	.st1{fill:#0099FF;}
	.st2{fill:#5574F0;}
	.st3{fill:#5E85B9;}
	.st4{fill:#50A6EC;}
	.st5{fill:#3A77B3;}
	.st6{fill:#5421EB;}
	.st7{fill:#355795;}
	.st8{fill:#10C8E1;}
	.st9{fill:#265491;}
	.st10{fill:#2962FF;}
	.st11{fill:#1990E5;}
	.st12{fill:#4579CC;}
	.st13{fill:#623828;}
	.st14{fill:#623828;stroke:#000000;stroke-width:2;stroke-miterlimit:10;}
</style>
<line class="st0" x1="109" y1="35.2" x2="79.6" y2="138.2"/>
<line class="st0" x1="129.6" y1="21.2" x2="79.6" y2="138.2"/>
<line class="st0" x1="152.2" y1="15.2" x2="79.6" y2="138.2"/>
<line class="st0" x1="140.3" y1="61.5" x2="79.6" y2="138.2"/>
<line class="st0" x1="138.6" y1="98.3" x2="79.6" y2="138.2"/>
<line class="st0" x1="169.3" y1="88" x2="79.6" y2="138.2"/>
<line class="st0" x1="162.7" y1="61.3" x2="79.6" y2="138.2"/>
<line class="st0" x1="177.7" y1="105.6" x2="79.6" y2="138.2"/>
<line class="st0" x1="183.5" y1="119.6" x2="79.6" y2="138.2"/>
<line class="st0" x1="160.7" y1="75" x2="79.6" y2="138.2"/>
<line class="st0" x1="143.2" y1="71.5" x2="79.6" y2="138.2"/>
<line class="st0" x1="125.9" y1="47.8" x2="79.6" y2="138.2"/>
<line class="st0" x1="109.5" y1="54.9" x2="79.6" y2="138.2"/>
<line class="st0" x1="156.2" y1="103.1" x2="79.6" y2="138.2"/>
<line class="st0" x1="157.6" y1="116.5" x2="79.6" y2="138.2"/>
<line class="st0" x1="140.3" y1="61.5" x2="79.6" y2="138.2"/>
<line class="st0" x1="125.9" y1="47.8" x2="79.6" y2="138.2"/>
<line class="st0" x1="142.3" y1="49" x2="79.6" y2="138.2"/>
<ellipse transform="matrix(0.6905 -0.7233 0.7233 0.6905 10.2958 87.2261)" class="st1" cx="107.1" cy="31.6" rx="12.6" ry="12.6"/>
<ellipse transform="matrix(0.6905 -0.7233 0.7233 0.6905 27.6899 85.1484)" class="st2" cx="113.3" cy="10.2" rx="10.2" ry="10.2"/>
<ellipse transform="matrix(0.6905 -0.7233 0.7233 0.6905 18.2138 96.4365)" class="st3" cx="121.8" cy="26.9" rx="10.4" ry="10.4"/>
<ellipse transform="matrix(0.6905 -0.7233 0.7233 0.6905 13.9258 111.0897)" class="st4" cx="136.8" cy="39.3" rx="9" ry="9"/>
<ellipse transform="matrix(0.6905 -0.7233 0.7233 0.6905 28.2452 108.3162)" class="st5" cx="140.7" cy="21.2" rx="9.7" ry="9.7"/>
<ellipse transform="matrix(0.6905 -0.7233 0.7233 0.6905 8.9833 124.3064)" class="st6" cx="149.7" cy="51.7" rx="9" ry="9"/>
<ellipse transform="matrix(0.6905 -0.7233 0.7233 0.6905 23.9145 124.7796)" class="st7" cx="157.8" cy="34.4" rx="11.9" ry="11.9"/>
<ellipse transform="matrix(0.6905 -0.7233 0.7233 0.6905 -12.6267 95.9843)" class="st8" cx="105.8" cy="62.7" rx="10.8" ry="10.8"/>
<ellipse transform="matrix(0.6905 -0.7233 0.7233 0.6905 -5.3197 104.8056)" class="st9" cx="119.8" cy="58.6" rx="10.8" ry="10.8"/>
<ellipse transform="matrix(0.6905 -0.7233 0.7233 0.6905 -4.8019 85.7234)" class="st10" cx="97.8" cy="48.5" rx="7.9" ry="7.9"/>
<ellipse transform="matrix(0.6905 -0.7233 0.7233 0.6905 5.9664 102.9374)" class="st11" cx="123.3" cy="44.5" rx="7.9" ry="7.9"/>
<ellipse transform="matrix(0.6905 -0.7233 0.7233 0.6905 2.3712 94.8537)" class="st12" cx="112" cy="44.7" rx="7.9" ry="7.9"/>
<ellipse transform="matrix(0.6905 -0.7233 0.7233 0.6905 -12.0724 95.2707)" class="st1" cx="105.3" cy="61.7" rx="12.6" ry="12.6"/>
<ellipse transform="matrix(0.6905 -0.7233 0.7233 0.6905 5.3217 93.193)" class="st2" cx="111.6" cy="40.4" rx="10.2" ry="10.2"/>
<ellipse transform="matrix(0.6905 -0.7233 0.7233 0.6905 -4.1544 104.4811)" class="st3" cx="120" cy="57.1" rx="10.4" ry="10.4"/>
<ellipse transform="matrix(0.6905 -0.7233 0.7233 0.6905 -8.4424 119.1344)" class="st4" cx="135" cy="69.4" rx="9" ry="9"/>
<ellipse transform="matrix(0.6905 -0.7233 0.7233 0.6905 5.8769 116.3609)" class="st5" cx="138.9" cy="51.3" rx="9.7" ry="9.7"/>
<path class="st7" d="M147.8,73.2c-6.6-6.3-4.3-18.5,7.2-20.7c0.4-0.1,0.9-0.1,1.3,0c11.7,1.7,14.5,13.8,8.2,20.4
	C160,77.5,152.5,77.7,147.8,73.2"/>
<ellipse transform="matrix(0.6905 -0.7233 0.7233 0.6905 -27.688 112.8503)" class="st9" cx="118" cy="88.8" rx="10.8" ry="10.8"/>
<ellipse transform="matrix(0.6905 -0.7233 0.7233 0.6905 -27.1702 93.7681)" class="st10" cx="96" cy="78.6" rx="7.9" ry="7.9"/>
<path class="st12" d="M104.8,80.5c-4.5-4.3-2.8-12.6,5.3-13.9c8.1,0.9,10.2,9.1,5.9,13.6"/>
<ellipse transform="matrix(0.6905 -0.7233 0.7233 0.6905 -26.4921 126.3079)" class="st1" cx="134.3" cy="94.1" rx="12.6" ry="12.6"/>
<ellipse transform="matrix(0.6905 -0.7233 0.7233 0.6905 -9.098 124.2301)" class="st2" cx="140.6" cy="72.7" rx="10.2" ry="10.2"/>
<ellipse transform="matrix(0.6905 -0.7233 0.7233 0.6905 -18.5741 135.5183)" class="st3" cx="149.1" cy="89.5" rx="10.4" ry="10.4"/>
<ellipse transform="matrix(0.6905 -0.7233 0.7233 0.6905 -22.8621 150.1715)" class="st4" cx="164.1" cy="101.8" rx="9" ry="9"/>
<ellipse transform="matrix(0.6905 -0.7233 0.7233 0.6905 -8.5428 147.398)" class="st5" cx="168" cy="83.7" rx="9.7" ry="9.7"/>
<path class="st7" d="M176.9,105.5c-4.7-4.5-4.9-12-0.4-16.8s12-4.9,16.8-0.4s4.9,12,0.4,16.8C189.1,109.9,181.6,110.1,176.9,105.5"
	/>
<ellipse transform="matrix(0.6905 -0.7233 0.7233 0.6905 -42.1077 143.8874)" class="st9" cx="147.1" cy="121.1" rx="10.8" ry="10.8"/>
<path class="st12" d="M133.9,112.9c-3.1-3-3.3-8-0.3-11.1c3-3.1,8-3.3,11.1-0.3c3.1,3,3.3,8,0.3,11.1"/>
<ellipse transform="matrix(0.6526 -0.7577 0.7577 0.6526 20.2975 138.8568)" class="st1" cx="161.6" cy="47.3" rx="12.6" ry="12.6"/>
<ellipse transform="matrix(0.6526 -0.7577 0.7577 0.6526 23.9043 157.0616)" class="st2" cx="183.2" cy="52.5" rx="10.2" ry="10.2"/>
<ellipse transform="matrix(0.6526 -0.7577 0.7577 0.6526 11.2113 147.9683)" class="st3" cx="167" cy="61.8" rx="10.4" ry="10.4"/>
<ellipse transform="matrix(0.6526 -0.7577 0.7577 0.6526 -4.6151 144.6285)" class="st4" cx="155.4" cy="77.3" rx="9" ry="9"/>
<ellipse transform="matrix(0.6526 -0.7577 0.7577 0.6526 -0.523 159.5289)" class="st5" cx="173.7" cy="80.3" rx="9.7" ry="9.7"/>
<path class="st7" d="M152.3,90.3c4.3-5,11.8-5.5,16.7-1.2s5.5,11.8,1.2,16.7c-4.3,5-11.8,5.5-16.7,1.2
	C148.6,102.8,148.1,95.3,152.3,90.3"/>
<ellipse transform="matrix(0.6526 -0.7577 0.7577 0.6526 0.4605 123.7892)" class="st9" cx="135.2" cy="61.4" rx="10.8" ry="10.8"/>
<ellipse transform="matrix(0.6526 -0.7577 0.7577 0.6526 20.6591 122.787)" class="st10" cx="144.2" cy="38.9" rx="7.9" ry="7.9"/>
<path class="st12" d="M142.8,47.8c2.8-3.3,7.8-3.7,11.1-0.8c3.3,2.8,3.7,7.8,0.8,11.1c-2.8,3.3-7.8,3.7-11.1,0.8"/>
<ellipse transform="matrix(0.6905 -0.7233 0.7233 0.6905 -32.8742 133.8023)" class="st1" cx="139.9" cy="105.3" rx="12.6" ry="12.6"/>
<ellipse transform="matrix(0.6905 -0.7233 0.7233 0.6905 -15.4801 131.7246)" class="st2" cx="146.2" cy="84" rx="10.2" ry="10.2"/>
<ellipse transform="matrix(0.6905 -0.7233 0.7233 0.6905 -24.9563 143.0127)" class="st3" cx="154.6" cy="100.7" rx="10.4" ry="10.4"/>
<ellipse transform="matrix(0.6905 -0.7233 0.7233 0.6905 -29.2442 157.6659)" class="st4" cx="169.6" cy="113" rx="9" ry="9"/>
<ellipse transform="matrix(0.6905 -0.7233 0.7233 0.6905 -14.9249 154.8925)" class="st5" cx="173.5" cy="94.9" rx="9.7" ry="9.7"/>
<path class="st7" d="M182.4,116.8c-4.7-4.5-4.9-12-0.4-16.8s12-4.9,16.8-0.4s4.9,12,0.4,16.8S187.2,121.3,182.4,116.8"/>
<ellipse transform="matrix(0.6905 -0.7233 0.7233 0.6905 -48.4898 151.3819)" class="st9" cx="152.7" cy="132.4" rx="10.8" ry="10.8"/>
<path class="st12" d="M139.4,124.1c-3.1-3-3.3-8-0.3-11.1s8-3.3,11.1-0.3c3.1,3,3.3,8,0.3,11.1"/>
<ellipse transform="matrix(0.5862 -0.8101 0.8101 0.5862 12.1503 184.5771)" class="st1" cx="186.8" cy="80.4" rx="12.6" ry="12.6"/>
<ellipse transform="matrix(0.5862 -0.8101 0.8101 0.5862 -7.0598 190.9974)" class="st2" cx="183.5" cy="102.4" rx="10.2" ry="10.2"/>
<ellipse transform="matrix(0.5862 -0.8101 0.8101 0.5862 1.0306 175.9995)" class="st3" cx="172.8" cy="87" rx="10.4" ry="10.4"/>
<ellipse transform="matrix(0.5862 -0.8101 0.8101 0.5862 2.4594 158.4044)" class="st4" cx="156.3" cy="76.8" rx="9" ry="9"/>
<ellipse transform="matrix(0.5862 -0.8101 0.8101 0.5862 -13.1062 164.8934)" class="st5" cx="154.9" cy="95.3" rx="9.7" ry="9.7"/>
<path class="st7" d="M143.1,74.8c5.3,3.8,6.5,11.2,2.7,16.5c-3.8,5.3-11.2,6.5-16.5,2.7c-5.3-3.8-6.5-11.2-2.7-16.5
	C130.4,72.2,137.8,71,143.1,74.8"/>
<ellipse transform="matrix(0.5862 -0.8101 0.8101 0.5862 25.7213 161.0196)" class="st9" cx="170.5" cy="55.3" rx="10.8" ry="10.8"/>
<ellipse transform="matrix(0.5862 -0.8101 0.8101 0.5862 29.5973 182.7481)" class="st10" cx="193.7" cy="62.4" rx="7.9" ry="7.9"/>
<path class="st12" d="M184.7,61.7c3.5,2.6,4.3,7.5,1.8,11s-7.5,4.3-11,1.8c-3.5-2.6-4.3-7.5-1.8-11"/>
<ellipse transform="matrix(0.3773 -0.9261 0.9261 0.3773 41.3695 154.1456)" class="st1" cx="135.3" cy="46.3" rx="12.6" ry="12.6"/>
<ellipse transform="matrix(0.3773 -0.9261 0.9261 0.3773 22.0771 169.8043)" class="st2" cx="137.3" cy="68.5" rx="10.2" ry="10.2"/>
<ellipse transform="matrix(0.3773 -0.9261 0.9261 0.3773 24.8997 149.0907)" class="st3" cx="123.3" cy="56" rx="10.4" ry="10.4"/>
<ellipse transform="matrix(0.3773 -0.9261 0.9261 0.3773 18.9516 128.2677)" class="st4" cx="104.9" cy="50" rx="9" ry="9"/>
<ellipse transform="matrix(0.3773 -0.9261 0.9261 0.3773 3.8743 142.4336)" class="st5" cx="107.9" cy="68.3" rx="9.7" ry="9.7"/>
<path class="st7" d="M91.6,51.3c6.1,2.5,9,9.4,6.5,15.4s-9.4,9-15.4,6.5c-6.1-2.5-9-9.4-6.5-15.4C78.6,51.7,85.5,48.8,91.6,51.3"/>
<ellipse transform="matrix(0.3773 -0.9261 0.9261 0.3773 46.7943 121.238)" class="st9" cx="113.6" cy="25.8" rx="10.8" ry="10.8"/>
<ellipse transform="matrix(0.3773 -0.9261 0.9261 0.3773 60.6173 144.5199)" class="st10" cx="137.8" cy="27.2" rx="7.9" ry="7.9"/>
<path class="st12" d="M128.9,28.7c4,1.6,6,6.2,4.3,10.3c-1.6,4-6.2,6-10.3,4.3c-4-1.6-6-6.2-4.3-10.3"/>
<ellipse transform="matrix(0.6905 -0.7233 0.7233 0.6905 -20.5366 89.8739)" class="st1" cx="94.8" cy="68.9" rx="12.6" ry="12.6"/>
<ellipse transform="matrix(0.6905 -0.7233 0.7233 0.6905 -3.1425 87.7962)" class="st2" cx="101" cy="47.6" rx="10.2" ry="10.2"/>
<ellipse transform="matrix(0.6905 -0.7233 0.7233 0.6905 -12.6186 99.0843)" class="st3" cx="109.5" cy="64.3" rx="10.4" ry="10.4"/>
<ellipse transform="matrix(0.6905 -0.7233 0.7233 0.6905 -16.9066 113.7376)" class="st4" cx="124.5" cy="76.6" rx="9" ry="9"/>
<ellipse transform="matrix(0.6905 -0.7233 0.7233 0.6905 -2.5873 110.9641)" class="st5" cx="128.4" cy="58.5" rx="9.7" ry="9.7"/>
<path class="st7" d="M137.3,80.4c-4.7-4.5-4.9-12-0.4-16.8s12-4.9,16.8-0.4s4.9,12,0.4,16.8C149.5,84.7,142,84.9,137.3,80.4"/>
<path class="st12" d="M94.3,87.7c-3.1-3-3.3-8-0.3-11.1c3-3.1,8-3.3,11.1-0.3s3.3,8,0.3,11.1"/>
<ellipse transform="matrix(0.6585 -0.7526 0.7526 0.6585 -13.5085 112.4074)" class="st1" cx="117.1" cy="71.1" rx="12.6" ry="12.6"/>
<ellipse transform="matrix(0.6585 -0.7526 0.7526 0.6585 -10.1428 130.4984)" class="st2" cx="138.7" cy="76.4" rx="10.2" ry="10.2"/>
<ellipse transform="matrix(0.6585 -0.7526 0.7526 0.6585 -22.6223 121.3362)" class="st3" cx="122.4" cy="85.6" rx="10.4" ry="10.4"/>
<ellipse transform="matrix(0.6585 -0.7526 0.7526 0.6585 -34.3899 132.6625)" class="st5" cx="129" cy="104.2" rx="9.7" ry="9.7"/>
<ellipse transform="matrix(0.6585 -0.7526 0.7526 0.6585 -12.9644 96.4791)" class="st10" cx="99.8" cy="62.5" rx="7.9" ry="7.9"/>
<path class="st12" d="M98.3,71.4c2.9-3.3,7.8-3.6,11.1-0.7c3.3,2.9,3.6,7.8,0.7,11.1s-7.8,3.6-11.1,0.7"/>
<ellipse transform="matrix(0.6767 -0.7363 0.7363 0.6767 -19.9118 130.5936)" class="st1" cx="138.7" cy="88" rx="12.6" ry="12.6"/>
<ellipse transform="matrix(0.6767 -0.7363 0.7363 0.6767 -22.5398 112.8826)" class="st2" cx="117.3" cy="82.1" rx="10.2" ry="10.2"/>
<ellipse transform="matrix(0.6767 -0.7363 0.7363 0.6767 -10.7316 122.2363)" class="st3" cx="133.8" cy="73.3" rx="10.4" ry="10.4"/>
<ellipse transform="matrix(0.6767 -0.7363 0.7363 0.6767 4.3639 126.1916)" class="st4" cx="145.9" cy="58.1" rx="9" ry="9"/>
<ellipse transform="matrix(0.6767 -0.7363 0.7363 0.6767 1.1143 111.6423)" class="st5" cx="127.7" cy="54.6" rx="9.7" ry="9.7"/>
<path class="st7" d="M149.4,45.2c-4.4,4.8-11.9,5.1-16.7,0.7c-4.8-4.4-5.1-11.9-0.7-16.7c4.4-4.8,11.9-5.1,16.7-0.7
	C153.5,32.9,153.8,40.4,149.4,45.2"/>
<ellipse transform="matrix(0.6767 -0.7363 0.7363 0.6767 -1.4974 146.0371)" class="st9" cx="165.5" cy="74.7" rx="10.8" ry="10.8"/>
<ellipse transform="matrix(0.6767 -0.7363 0.7363 0.6767 -21.0084 146.0623)" class="st10" cx="155.8" cy="97" rx="7.9" ry="7.9"/>
<path class="st12" d="M157.5,88.1c-2.9,3.2-7.9,3.4-11.1,0.5c-3.2-2.9-3.4-7.9-0.5-11.1c2.9-3.2,7.9-3.4,11.1-0.5"/>
<ellipse transform="matrix(5.924528e-02 -0.9982 0.9982 5.924528e-02 106.7489 185.61)" class="st1" cx="151.9" cy="36.2" rx="12.6" ry="12.6"/>
<ellipse transform="matrix(5.924528e-02 -0.9982 0.9982 5.924528e-02 94.924 213.769)" class="st2" cx="160.9" cy="56.5" rx="10.2" ry="10.2"/>
<ellipse transform="matrix(5.924528e-02 -0.9982 0.9982 5.924528e-02 85.9688 189.6847)" class="st3" cx="143.6" cy="49.2" rx="10.4" ry="10.4"/>
<ellipse transform="matrix(5.924528e-02 -0.9982 0.9982 5.924528e-02 67.4454 170.5688)" class="st4" cx="124.2" cy="49.5" rx="9" ry="9"/>
<ellipse transform="matrix(5.924528e-02 -0.9982 0.9982 5.924528e-02 59.3225 194.6653)" class="st5" cx="132.9" cy="65.9" rx="9.7" ry="9.7"/>
<path class="st7" d="M112,54.9c6.5,0.4,11.5,6,11.1,12.5c-0.4,6.5-6,11.5-12.5,11.1c-6.5-0.4-11.5-6-11.1-12.5
	C99.9,59.5,105.5,54.5,112,54.9"/>
<ellipse transform="matrix(5.924528e-02 -0.9982 0.9982 5.924528e-02 93.5411 146.8018)" class="st9" cx="124.7" cy="23.8" rx="10.8" ry="10.8"/>
<ellipse transform="matrix(5.924528e-02 -0.9982 0.9982 5.924528e-02 122.0247 164.0149)" class="st10" cx="148" cy="17.3" rx="7.9" ry="7.9"/>
<path class="st12" d="M140.1,21.5c4.3,0.3,7.7,4,7.4,8.3c-0.3,4.3-4,7.7-8.3,7.4c-4.3-0.3-7.7-4-7.4-8.3"/>
<ellipse transform="matrix(0.9368 -0.3499 0.3499 0.9368 -29.4489 69.5877)" class="st1" cx="177.9" cy="116.3" rx="12.6" ry="12.6"/>
<ellipse transform="matrix(0.9368 -0.3499 0.3499 0.9368 -36.1651 65.3968)" class="st2" cx="162.9" cy="132.8" rx="10.2" ry="10.2"/>
<ellipse transform="matrix(0.9368 -0.3499 0.3499 0.9368 -29.6318 64.1018)" class="st3" cx="162.6" cy="114.1" rx="10.4" ry="10.4"/>
<ellipse transform="matrix(0.9368 -0.3499 0.3499 0.9368 -23.974 60.1528)" class="st4" cx="154.5" cy="96.4" rx="9" ry="9"/>
<ellipse transform="matrix(0.9368 -0.3499 0.3499 0.9368 -29.8038 57.0773)" class="st5" cx="143.1" cy="111" rx="9.7" ry="9.7"/>
<path class="st7" d="M144.6,87.5c2.3,6.1-0.8,13-7,15.2s-13-0.8-15.2-7s0.8-13,7-15.2S142.3,81.3,144.6,87.5"/>
<ellipse transform="matrix(0.9368 -0.3499 0.3499 0.9368 -18.972 67.8136)" class="st9" cx="178.2" cy="86.4" rx="10.8" ry="10.8"/>
<ellipse transform="matrix(0.9368 -0.3499 0.3499 0.9368 -24.555 74.39)" class="st10" cx="193.6" cy="105.2" rx="7.9" ry="7.9"/>
<path class="st12" d="M186.5,99.6c1.5,4.1-0.5,8.6-4.6,10.1c-4.1,1.5-8.6-0.5-10.1-4.6s0.5-8.6,4.6-10.1"/>
<ellipse transform="matrix(0.6905 -0.7233 0.7233 0.6905 -29.4351 92.1858)" class="st1" cx="93" cy="80.5" rx="12.6" ry="12.6"/>
<ellipse transform="matrix(0.6905 -0.7233 0.7233 0.6905 -12.041 90.1081)" class="st2" cx="99.3" cy="59.1" rx="10.2" ry="10.2"/>
<ellipse transform="matrix(0.6905 -0.7233 0.7233 0.6905 -21.5171 101.3963)" class="st3" cx="107.7" cy="75.8" rx="10.4" ry="10.4"/>
<ellipse transform="matrix(0.6905 -0.7233 0.7233 0.6905 -25.8051 116.0495)" class="st4" cx="122.7" cy="88.2" rx="9" ry="9"/>
<ellipse transform="matrix(0.6905 -0.7233 0.7233 0.6905 -11.4858 113.276)" class="st5" cx="126.6" cy="70.1" rx="9.7" ry="9.7"/>
<path class="st7" d="M135.5,91.9c-4.7-4.5-4.9-12-0.4-16.8s12-4.9,16.8-0.4s4.9,12,0.4,16.8S140.2,96.4,135.5,91.9"/>
<line class="st0" x1="34.2" y1="99" x2="131" y2="144.7"/>
<line class="st0" x1="23.7" y1="76.4" x2="131" y2="144.7"/>
<line class="st0" x1="21.4" y1="53.1" x2="131" y2="144.7"/>
<line class="st0" x1="65.2" y1="72.4" x2="131" y2="144.7"/>
<line class="st0" x1="101.2" y1="80" x2="131" y2="144.7"/>
<line class="st0" x1="96" y1="48.1" x2="131" y2="144.7"/>
<line class="st0" x1="68.6" y1="50.2" x2="131" y2="144.7"/>
<line class="st0" x1="114.7" y1="42.6" x2="131" y2="144.7"/>
<line class="st0" x1="129.5" y1="39.1" x2="131" y2="144.7"/>
<line class="st0" x1="81.8" y1="54.4" x2="131" y2="144.7"/>
<line class="st0" x1="75.5" y1="71.1" x2="131" y2="144.7"/>
<line class="st0" x1="49.3" y1="84.4" x2="131" y2="144.7"/>
<line class="st0" x1="53.7" y1="101.8" x2="131" y2="144.7"/>
<line class="st0" x1="108.8" y1="63.5" x2="131" y2="144.7"/>
<line class="st0" x1="122.3" y1="64.2" x2="131" y2="144.7"/>
<line class="st0" x1="65.2" y1="72.4" x2="131" y2="144.7"/>
<line class="st0" x1="49.3" y1="84.4" x2="131" y2="144.7"/>
<line class="st0" x1="53.2" y1="68.4" x2="131" y2="144.7"/>
<ellipse transform="matrix(0.7984 -0.6021 0.6021 0.7984 -54.3059 38.4584)" class="st1" cx="30.3" cy="100.3" rx="12.6" ry="12.6"/>
<ellipse transform="matrix(0.7984 -0.6021 0.6021 0.7984 -52.5447 24.432)" class="st2" cx="10.2" cy="90.7" rx="10.2" ry="10.2"/>
<ellipse transform="matrix(0.7984 -0.6021 0.6021 0.7984 -45.5506 34.0518)" class="st3" cx="28.1" cy="85.1" rx="10.4" ry="10.4"/>
<ellipse transform="matrix(0.7984 -0.6021 0.6021 0.7984 -34.9107 40.2642)" class="st4" cx="42.7" cy="72.3" rx="9" ry="9"/>
<ellipse transform="matrix(0.7984 -0.6021 0.6021 0.7984 -34.2933 28.5102)" class="st5" cx="25.4" cy="65.5" rx="9.7" ry="9.7"/>
<ellipse transform="matrix(0.7984 -0.6021 0.6021 0.7984 -25.5232 46.7094)" class="st6" cx="57" cy="61.5" rx="9" ry="9"/>
<ellipse transform="matrix(0.7984 -0.6021 0.6021 0.7984 -22.2441 35.1086)" class="st7" cx="41.3" cy="50.8" rx="11.9" ry="11.9"/>
<ellipse transform="matrix(0.7984 -0.6021 0.6021 0.7984 -51.9124 58.1156)" class="st8" cx="60.8" cy="106.6" rx="10.8" ry="10.8"/>
<ellipse transform="matrix(0.7984 -0.6021 0.6021 0.7984 -43.5809 54.1117)" class="st9" cx="59" cy="92.1" rx="10.8" ry="10.8"/>
<ellipse transform="matrix(0.7984 -0.6021 0.6021 0.7984 -58.4237 49.989)" class="st10" cx="45.4" cy="112.3" rx="7.9" ry="7.9"/>
<ellipse transform="matrix(0.7984 -0.6021 0.6021 0.7984 -42.8454 44.9094)" class="st11" cx="45.7" cy="86.4" rx="7.9" ry="7.9"/>
<ellipse transform="matrix(0.7984 -0.6021 0.6021 0.7984 -49.8763 46.1502)" class="st12" cx="44" cy="97.6" rx="7.9" ry="7.9"/>
<ellipse transform="matrix(0.7984 -0.6021 0.6021 0.7984 -52.3633 57.5425)" class="st1" cx="59.8" cy="107" rx="12.6" ry="12.6"/>
<ellipse transform="matrix(0.7984 -0.6021 0.6021 0.7984 -50.602 43.5161)" class="st2" cx="39.7" cy="97.3" rx="10.2" ry="10.2"/>
<ellipse transform="matrix(0.7984 -0.6021 0.6021 0.7984 -43.608 53.136)" class="st3" cx="57.6" cy="91.7" rx="10.4" ry="10.4"/>
<ellipse transform="matrix(0.7984 -0.6021 0.6021 0.7984 -32.968 59.3484)" class="st4" cx="72.2" cy="78.9" rx="9" ry="9"/>
<ellipse transform="matrix(0.7984 -0.6021 0.6021 0.7984 -32.3506 47.5943)" class="st5" cx="54.9" cy="72.1" rx="9.7" ry="9.7"/>
<path class="st7" d="M77.9,66.9c-7.3,5.5-18.9,1.3-19.3-10.5c0-0.4,0-0.9,0.2-1.3c3.6-11.2,15.9-12.1,21.4-4.8
	C84.2,55.5,83.1,62.9,77.9,66.9"/>
<ellipse transform="matrix(0.7984 -0.6021 0.6021 0.7984 -41.6382 73.1958)" class="st9" cx="88.5" cy="98.8" rx="10.8" ry="10.8"/>
<ellipse transform="matrix(0.7984 -0.6021 0.6021 0.7984 -56.481 69.0732)" class="st10" cx="74.9" cy="118.9" rx="7.9" ry="7.9"/>
<path class="st12" d="M78.2,110.5c-4.9,3.7-12.9,0.7-12.8-7.4c2.2-7.9,10.6-8.6,14.4-3.6"/>
<ellipse transform="matrix(0.7984 -0.6021 0.6021 0.7984 -30.8664 74.8809)" class="st1" cx="96.4" cy="83.5" rx="12.6" ry="12.6"/>
<ellipse transform="matrix(0.7984 -0.6021 0.6021 0.7984 -29.1051 60.8544)" class="st2" cx="76.3" cy="73.9" rx="10.2" ry="10.2"/>
<ellipse transform="matrix(0.7984 -0.6021 0.6021 0.7984 -22.1111 70.4743)" class="st3" cx="94.2" cy="68.3" rx="10.4" ry="10.4"/>
<ellipse transform="matrix(0.7984 -0.6021 0.6021 0.7984 -11.4711 76.6867)" class="st4" cx="108.8" cy="55.5" rx="9" ry="9"/>
<ellipse transform="matrix(0.7984 -0.6021 0.6021 0.7984 -10.8537 64.9326)" class="st5" cx="91.6" cy="48.7" rx="9.7" ry="9.7"/>
<path class="st7" d="M114.6,43.4c-5.2,3.9-12.7,2.9-16.6-2.3c-3.9-5.2-2.9-12.7,2.3-16.6s12.7-2.9,16.6,2.3S119.8,39.5,114.6,43.4"
	/>
<ellipse transform="matrix(0.7984 -0.6021 0.6021 0.7984 -20.1413 90.5341)" class="st9" cx="125.1" cy="75.3" rx="10.8" ry="10.8"/>
<path class="st12" d="M114.9,87.1c-3.5,2.6-8.4,1.9-11-1.5c-2.6-3.5-1.9-8.4,1.5-11c3.5-2.6,8.4-1.9,11,1.5"/>
<ellipse transform="matrix(0.7666 -0.6421 0.6421 0.7666 -18.7764 46.5214)" class="st1" cx="54.6" cy="49.1" rx="12.6" ry="12.6"/>
<ellipse transform="matrix(0.7666 -0.6421 0.6421 0.7666 -3.5826 47.2545)" class="st2" cx="63.2" cy="28.6" rx="10.2" ry="10.2"/>
<ellipse transform="matrix(0.7666 -0.6421 0.6421 0.7666 -13.3268 55.5514)" class="st3" cx="69.8" cy="46.1" rx="10.4" ry="10.4"/>
<ellipse transform="matrix(0.7666 -0.6421 0.6421 0.7666 -19.1146 67.479)" class="st4" cx="83.3" cy="60" rx="9" ry="9"/>
<ellipse transform="matrix(0.7666 -0.6421 0.6421 0.7666 -6.4531 67.1722)" class="st5" cx="89.2" cy="42.5" rx="9.7" ry="9.7"/>
<path class="st7" d="M95.6,65.2c-4.2-5-3.5-12.5,1.5-16.7c5-4.2,12.5-3.5,16.7,1.5c4.2,5,3.5,12.5-1.5,16.7
	C107.3,70.9,99.8,70.2,95.6,65.2"/>
<ellipse transform="matrix(0.7666 -0.6421 0.6421 0.7666 -34.6861 59.3187)" class="st9" cx="64.3" cy="77.4" rx="10.8" ry="10.8"/>
<ellipse transform="matrix(0.7666 -0.6421 0.6421 0.7666 -31.4868 43.0543)" class="st10" cx="43.5" cy="64.8" rx="7.9" ry="7.9"/>
<path class="st12" d="M52,67.7c-2.8-3.3-2.4-8.3,1-11.1c3.3-2.8,8.3-2.4,11.1,1c2.8,3.3,2.4,8.3-1,11.1"/>
<ellipse transform="matrix(0.7984 -0.6021 0.6021 0.7984 -26.2405 81.3387)" class="st1" cx="108.4" cy="79.9" rx="12.6" ry="12.6"/>
<ellipse transform="matrix(0.7984 -0.6021 0.6021 0.7984 -24.4793 67.3123)" class="st2" cx="88.3" cy="70.2" rx="10.2" ry="10.2"/>
<ellipse transform="matrix(0.7984 -0.6021 0.6021 0.7984 -17.4853 76.9321)" class="st3" cx="106.2" cy="64.6" rx="10.4" ry="10.4"/>
<ellipse transform="matrix(0.7984 -0.6021 0.6021 0.7984 -6.8453 83.1445)" class="st4" cx="120.8" cy="51.8" rx="9" ry="9"/>
<ellipse transform="matrix(0.7984 -0.6021 0.6021 0.7984 -6.2279 71.3905)" class="st5" cx="103.5" cy="45" rx="9.7" ry="9.7"/>
<path class="st7" d="M126.5,39.8c-5.2,3.9-12.7,2.9-16.6-2.3s-2.9-12.7,2.3-16.6s12.7-2.9,16.6,2.3S131.8,35.8,126.5,39.8"/>
<ellipse transform="matrix(0.7984 -0.6021 0.6021 0.7984 -15.5155 96.992)" class="st9" cx="137.1" cy="71.7" rx="10.8" ry="10.8"/>
<path class="st12" d="M126.8,83.4c-3.5,2.6-8.4,1.9-11-1.5c-2.6-3.5-1.9-8.4,1.5-11c3.5-2.6,8.4-1.9,11,1.5"/>
<ellipse transform="matrix(0.7096 -0.7046 0.7046 0.7096 5.6805 72.9587)" class="st1" cx="91.4" cy="29.6" rx="12.6" ry="12.6"/>
<ellipse transform="matrix(0.7096 -0.7046 0.7046 0.7096 7.0153 89.8745)" class="st2" cx="112.5" cy="36.4" rx="10.2" ry="10.2"/>
<ellipse transform="matrix(0.7096 -0.7046 0.7046 0.7096 -3.5417 80.2641)" class="st3" cx="95.6" cy="44.4" rx="10.4" ry="10.4"/>
<ellipse transform="matrix(0.7096 -0.7046 0.7046 0.7096 -17.5573 75.5444)" class="st4" cx="82.9" cy="59.1" rx="9" ry="9"/>
<ellipse transform="matrix(0.7096 -0.7046 0.7046 0.7096 -15.4296 89.5113)" class="st5" cx="100.9" cy="63.5" rx="9.7" ry="9.7"/>
<path class="st7" d="M78.8,71.8c4.6-4.6,12.1-4.6,16.8,0.1c4.6,4.6,4.6,12.1-0.1,16.8c-4.6,4.6-12.1,4.6-16.8-0.1
	S74.1,76.4,78.8,71.8"/>
<ellipse transform="matrix(0.7096 -0.7046 0.7046 0.7096 -10.727 57.1617)" class="st9" cx="64" cy="41.6" rx="10.8" ry="10.8"/>
<ellipse transform="matrix(0.7096 -0.7046 0.7046 0.7096 7.7217 58.4046)" class="st10" cx="74.7" cy="19.8" rx="7.9" ry="7.9"/>
<path class="st12" d="M72.6,28.6c3.1-3.1,8.1-3,11.1,0c3.1,3.1,3,8.1,0,11.1c-3.1,3.1-8.1,3-11.1,0"/>
<ellipse transform="matrix(0.5222 -0.8528 0.8528 0.5222 -40.242 77.8874)" class="st1" cx="49.4" cy="74.9" rx="12.6" ry="12.6"/>
<ellipse transform="matrix(0.5222 -0.8528 0.8528 0.5222 -31.0104 97.5983)" class="st2" cx="71.6" cy="76.5" rx="10.2" ry="10.2"/>
<ellipse transform="matrix(0.5222 -0.8528 0.8528 0.5222 -48.0215 90.819)" class="st3" cx="57" cy="88.3" rx="10.4" ry="10.4"/>
<ellipse transform="matrix(0.5222 -0.8528 0.8528 0.5222 -66.9802 91.4723)" class="st4" cx="48.1" cy="105.5" rx="9" ry="9"/>
<ellipse transform="matrix(0.5222 -0.8528 0.8528 0.5222 -58.1264 107.2844)" class="st5" cx="66.7" cy="105.5" rx="9.7" ry="9.7"/>
<path class="st7" d="M47.2,118.8c3.4-5.6,10.7-7.3,16.3-3.9c5.6,3.4,7.3,10.7,3.9,16.3c-3.4,5.6-10.7,7.3-16.3,3.9
	S43.8,124.4,47.2,118.8"/>
<ellipse transform="matrix(0.5222 -0.8528 0.8528 0.5222 -67.0687 66.3177)" class="st9" cx="25.7" cy="93" rx="10.8" ry="10.8"/>
<ellipse transform="matrix(0.5222 -0.8528 0.8528 0.5222 -44.3545 59.4901)" class="st10" cx="30.9" cy="69.3" rx="7.9" ry="7.9"/>
<path class="st12" d="M30.9,78.3c2.3-3.7,7.1-4.9,10.8-2.6c3.7,2.3,4.9,7.1,2.6,10.8c-2.3,3.7-7.1,4.9-10.8,2.6"/>
<ellipse transform="matrix(0.7984 -0.6021 0.6021 0.7984 -58.2384 63.1197)" class="st1" cx="65.2" cy="118.5" rx="12.6" ry="12.6"/>
<ellipse transform="matrix(0.7984 -0.6021 0.6021 0.7984 -56.4772 49.0933)" class="st2" cx="45.1" cy="108.9" rx="10.2" ry="10.2"/>
<ellipse transform="matrix(0.7984 -0.6021 0.6021 0.7984 -49.4831 58.7132)" class="st3" cx="62.9" cy="103.3" rx="10.4" ry="10.4"/>
<ellipse transform="matrix(0.7984 -0.6021 0.6021 0.7984 -38.8432 64.9256)" class="st4" cx="77.5" cy="90.5" rx="9" ry="9"/>
<ellipse transform="matrix(0.7984 -0.6021 0.6021 0.7984 -38.2258 53.1715)" class="st5" cx="60.3" cy="83.7" rx="9.7" ry="9.7"/>
<path class="st7" d="M83.3,78.4c-5.2,3.9-12.7,2.9-16.6-2.3S63.8,63.5,69,59.5c5.2-3.9,12.7-2.9,16.6,2.3S88.5,74.5,83.3,78.4"/>
<path class="st12" d="M83.6,122.1c-3.5,2.6-8.4,1.9-11-1.5c-2.6-3.5-1.9-8.4,1.5-11s8.4-1.9,11,1.5"/>
<ellipse transform="matrix(0.7716 -0.6361 0.6361 0.7716 -45.4067 67.216)" class="st1" cx="70.9" cy="96.8" rx="12.6" ry="12.6"/>
<ellipse transform="matrix(0.7716 -0.6361 0.6361 0.7716 -30.3848 68.1162)" class="st2" cx="79.7" cy="76.4" rx="10.2" ry="10.2"/>
<ellipse transform="matrix(0.7716 -0.6361 0.6361 0.7716 -40.1197 76.2117)" class="st3" cx="86.1" cy="94" rx="10.4" ry="10.4"/>
<ellipse transform="matrix(0.7716 -0.6361 0.6361 0.7716 -33.4539 87.7867)" class="st5" cx="105.5" cy="90.5" rx="9.7" ry="9.7"/>
<ellipse transform="matrix(0.7716 -0.6361 0.6361 0.7716 -57.9405 63.6398)" class="st10" cx="59.6" cy="112.5" rx="7.9" ry="7.9"/>
<path class="st12" d="M68.2,115.4c-2.8-3.4-2.3-8.3,1.1-11.1s8.3-2.3,11.1,1.1s2.3,8.3-1.1,11.1"/>
<ellipse transform="matrix(0.7869 -0.6171 0.6171 0.7869 -28.8634 72.8569)" class="st1" cx="91.1" cy="78.2" rx="12.6" ry="12.6"/>
<ellipse transform="matrix(0.7869 -0.6171 0.6171 0.7869 -43.3318 71.4566)" class="st2" cx="81.8" cy="98.5" rx="10.2" ry="10.2"/>
<ellipse transform="matrix(0.7869 -0.6171 0.6171 0.7869 -33.6485 63.9867)" class="st3" cx="75.8" cy="80.7" rx="10.4" ry="10.4"/>
<ellipse transform="matrix(0.7869 -0.6171 0.6171 0.7869 -27.5741 52.8689)" class="st4" cx="62.8" cy="66.4" rx="9" ry="9"/>
<ellipse transform="matrix(0.7869 -0.6171 0.6171 0.7869 -39.6735 52.5778)" class="st5" cx="56.3" cy="83.7" rx="9.7" ry="9.7"/>
<path class="st7" d="M50.6,60.8c4,5.2,3.1,12.6-2,16.6c-5.2,4-12.6,3.1-16.6-2s-3.1-12.6,2-16.6S46.6,55.7,50.6,60.8"/>
<ellipse transform="matrix(0.7869 -0.6171 0.6171 0.7869 -13.0877 61.3758)" class="st9" cx="82.3" cy="49.6" rx="10.8" ry="10.8"/>
<ellipse transform="matrix(0.7869 -0.6171 0.6171 0.7869 -16.8914 76.7524)" class="st10" cx="102.7" cy="62.8" rx="7.9" ry="7.9"/>
<path class="st12" d="M94.2,59.7c2.7,3.4,2.1,8.4-1.3,11.1s-8.4,2.1-11.1-1.3s-2.1-8.4,1.3-11.1"/>
<ellipse transform="matrix(0.22 -0.9755 0.9755 0.22 -22.6947 85.4058)" class="st1" cx="42.1" cy="56.9" rx="12.6" ry="12.6"/>
<ellipse transform="matrix(0.22 -0.9755 0.9755 0.22 -0.4115 102.044)" class="st2" cx="63.6" cy="51.3" rx="10.2" ry="10.2"/>
<ellipse transform="matrix(0.22 -0.9755 0.9755 0.22 -23.6616 104.6634)" class="st3" cx="53.6" cy="67.1" rx="10.4" ry="10.4"/>
<ellipse transform="matrix(0.22 -0.9755 0.9755 0.22 -44.6245 116.8297)" class="st4" cx="50.7" cy="86.3" rx="9" ry="9"/>
<ellipse transform="matrix(0.22 -0.9755 0.9755 0.22 -25.1175 129.3037)" class="st5" cx="68.3" cy="80.4" rx="9.7" ry="9.7"/>
<path class="st7" d="M54.1,99.2c1.4-6.4,7.8-10.4,14.2-9c6.4,1.4,10.4,7.8,9,14.2c-1.4,6.4-7.8,10.4-14.2,9S52.7,105.6,54.1,99.2"/>
<ellipse transform="matrix(0.22 -0.9755 0.9755 0.22 -59.8901 88.5466)" class="st9" cx="25.4" cy="81.7" rx="10.8" ry="10.8"/>
<ellipse transform="matrix(0.22 -0.9755 0.9755 0.22 -38.4193 67.1609)" class="st10" cx="22.8" cy="57.6" rx="7.9" ry="7.9"/>
<path class="st12" d="M25.7,66.1c1-4.2,5.2-6.9,9.4-6c4.2,1,6.9,5.2,6,9.4s-5.2,6.9-9.4,6"/>
<ellipse transform="matrix(0.9811 -0.1937 0.1937 0.9811 -6.1834 25.1145)" class="st1" cx="125.3" cy="44.2" rx="12.6" ry="12.6"/>
<ellipse transform="matrix(0.9811 -0.1937 0.1937 0.9811 -9.2968 28.1283)" class="st2" cx="139.2" cy="61.6" rx="10.2" ry="10.2"/>
<ellipse transform="matrix(0.9811 -0.1937 0.1937 0.9811 -9.1215 24.4869)" class="st3" cx="120.7" cy="58.9" rx="10.4" ry="10.4"/>
<ellipse transform="matrix(0.9811 -0.1937 0.1937 0.9811 -10.4715 20.9599)" class="st4" cx="102" cy="64" rx="9" ry="9"/>
<ellipse transform="matrix(0.9811 -0.1937 0.1937 0.9811 -12.8754 23.6501)" class="st5" cx="114.5" cy="77.7" rx="9.7" ry="9.7"/>
<path class="st7" d="M91.5,72.3c6.4-1.3,12.7,2.9,13.9,9.3c1.3,6.4-2.9,12.7-9.3,13.9c-6.4,1.3-12.7-2.9-13.9-9.3
	C80.9,79.8,85.1,73.6,91.5,72.3"/>
<ellipse transform="matrix(0.9811 -0.1937 0.1937 0.9811 -5.7415 19.3152)" class="st9" cx="95.9" cy="39" rx="10.8" ry="10.8"/>
<ellipse transform="matrix(0.9811 -0.1937 0.1937 0.9811 -2.9859 23.1496)" class="st10" cx="116.9" cy="26.8" rx="7.9" ry="7.9"/>
<path class="st12" d="M110.3,33c4.3-0.8,8.4,1.9,9.3,6.2s-1.9,8.4-6.2,9.3c-4.3,0.8-8.4-1.9-9.3-6.2"/>
<ellipse transform="matrix(0.7984 -0.6021 0.6021 0.7984 -58.1613 70.5387)" class="st1" cx="76.3" cy="122.1" rx="12.6" ry="12.6"/>
<ellipse transform="matrix(0.7984 -0.6021 0.6021 0.7984 -56.4001 56.5122)" class="st2" cx="56.2" cy="112.5" rx="10.2" ry="10.2"/>
<ellipse transform="matrix(0.7984 -0.6021 0.6021 0.7984 -49.406 66.1321)" class="st3" cx="74.1" cy="106.9" rx="10.4" ry="10.4"/>
<ellipse transform="matrix(0.7984 -0.6021 0.6021 0.7984 -38.766 72.3445)" class="st4" cx="88.7" cy="94.1" rx="9" ry="9"/>
<ellipse transform="matrix(0.7984 -0.6021 0.6021 0.7984 -38.1487 60.5905)" class="st5" cx="71.4" cy="87.3" rx="9.7" ry="9.7"/>
<path class="st7" d="M94.4,82c-5.2,3.9-12.7,2.9-16.6-2.3c-3.9-5.2-2.9-12.7,2.3-16.6c5.2-3.9,12.7-2.9,16.6,2.3
	C100.7,70.7,99.7,78.1,94.4,82"/>
<line class="st0" x1="63.1" y1="82.8" x2="112.9" y2="177.6"/>
<line class="st0" x1="68.3" y1="58.5" x2="112.9" y2="177.6"/>
<line class="st0" x1="80.5" y1="38.5" x2="112.9" y2="177.6"/>
<line class="st0" x1="103.9" y1="80.2" x2="112.9" y2="177.6"/>
<line class="st0" x1="128.1" y1="108.1" x2="112.9" y2="177.6"/>
<line class="st0" x1="143.1" y1="79.4" x2="112.9" y2="177.6"/>
<line class="st0" x1="120" y1="64.6" x2="112.9" y2="177.6"/>
<line class="st0" x1="161.4" y1="86.3" x2="112.9" y2="177.6"/>
<line class="st0" x1="175.3" y1="92.4" x2="112.9" y2="177.6"/>
<line class="st0" x1="128" y1="75.9" x2="112.9" y2="177.6"/>
<line class="st0" x1="112.9" y1="85.5" x2="112.9" y2="177.6"/>
<line class="st0" x1="84" y1="80.2" x2="112.9" y2="177.6"/>
<line class="st0" x1="77" y1="96.8" x2="112.9" y2="177.6"/>
<line class="st0" x1="144.1" y1="99.4" x2="112.9" y2="177.6"/>
<line class="st0" x1="154.4" y1="108.1" x2="112.9" y2="177.6"/>
<line class="st0" x1="103.9" y1="80.2" x2="112.9" y2="177.6"/>
<line class="st0" x1="84" y1="80.2" x2="112.9" y2="177.6"/>
<line class="st0" x1="96.7" y1="69.8" x2="112.9" y2="177.6"/>
<polygon class="st13" points="123.1,186.5 105.9,186.5 101.9,162.3 126.1,162.3 "/>
<path class="st14" d="M112.9,209.8"/>
<path class="st14" d="M128.1,204.8"/>
<circle class="st1" cx="59.2" cy="81.5" r="12.6"/>
<circle class="st2" cx="49" cy="61.8" r="10.2"/>
<circle class="st3" cx="66.6" cy="68" r="10.4"/>
<circle class="st4" cx="86" cy="66.6" r="9"/>
<circle class="st5" cx="76.3" cy="50.8" r="9.7"/>
<circle class="st6" cx="103.9" cy="66.6" r="9"/>
<circle class="st7" cx="97.8" cy="48.6" r="11.9"/>
<circle class="st8" cx="79.8" cy="104.9" r="10.8"/>
<circle class="st9" cx="87.1" cy="92.3" r="10.8"/>
<circle class="st10" cx="64.1" cy="100.2" r="7.9"/>
<circle class="st11" cx="79.8" cy="79.7" r="7.9"/>
<circle class="st12" cx="71.8" cy="87.6" r="7.9"/>
<circle class="st1" cx="78.7" cy="104.6" r="12.6"/>
<circle class="st2" cx="68.5" cy="84.8" r="10.2"/>
<circle class="st3" cx="86.2" cy="91.1" r="10.4"/>
<circle class="st4" cx="105.5" cy="89.6" r="9"/>
<circle class="st5" cx="95.8" cy="73.8" r="9.7"/>
<path class="st7" d="M117.4,83.5c-9.1,0-15.9-10.4-9.1-20c0.3-0.4,0.6-0.7,0.9-0.9c9.6-6.8,20-0.1,20,9.1
	C129.2,78.2,123.9,83.5,117.4,83.5"/>
<circle class="st9" cx="106.6" cy="115.3" r="10.8"/>
<circle class="st10" cx="83.7" cy="123.2" r="7.9"/>
<path class="st12" d="M91.3,118.5c-6.2,0-10.7-7.2-5.8-13.7c6.5-4.9,13.7-0.4,13.7,5.8"/>
<circle class="st1" cx="122.1" cy="107.9" r="12.6"/>
<circle class="st2" cx="111.9" cy="88.2" r="10.2"/>
<circle class="st3" cx="129.5" cy="94.4" r="10.4"/>
<circle class="st4" cx="148.9" cy="93" r="9"/>
<circle class="st5" cx="139.2" cy="77.2" r="9.7"/>
<path class="st7" d="M160.7,86.9c-6.5,0-11.9-5.3-11.9-11.9s5.3-11.9,11.9-11.9c6.5,0,11.9,5.3,11.9,11.9S167.3,86.9,160.7,86.9"/>
<circle class="st9" cx="150" cy="118.7" r="10.8"/>
<circle class="st10" cx="127" cy="126.6" r="7.9"/>
<path class="st12" d="M134.7,121.9c-4.4,0-7.9-3.5-7.9-7.9c0-4.4,3.5-7.9,7.9-7.9c4.4,0,7.9,3.5,7.9,7.9"/>
<ellipse transform="matrix(0.9987 -5.111229e-02 5.111229e-02 0.9987 -2.6816 5.6676)" class="st1" cx="109.5" cy="55.3" rx="12.6" ry="12.6"/>
<ellipse transform="matrix(0.9987 -5.111229e-02 5.111229e-02 0.9987 -2.0832 6.6361)" class="st2" cx="128.7" cy="44" rx="10.2" ry="10.2"/>
<ellipse transform="matrix(0.9987 -5.111229e-02 5.111229e-02 0.9987 -3.0079 6.3864)" class="st3" cx="123.4" cy="62" rx="10.4" ry="10.4"/>
<ellipse transform="matrix(0.9987 -5.111229e-02 5.111229e-02 0.9987 -3.989 6.5345)" class="st4" cx="125.8" cy="81.3" rx="9" ry="9"/>
<ellipse transform="matrix(0.9987 -5.111229e-02 5.111229e-02 0.9987 -3.4337 7.3027)" class="st5" cx="141.1" cy="70.8" rx="9.7" ry="9.7"/>
<path class="st7" d="M132.5,92.8c-0.3-6.5,4.7-12.1,11.2-12.4s12.1,4.7,12.4,11.2c0.3,6.5-4.7,12.1-11.2,12.4
	C138.4,104.3,132.8,99.3,132.5,92.8"/>
<ellipse transform="matrix(0.9987 -5.111229e-02 5.111229e-02 0.9987 -4.1451 5.2282)" class="st9" cx="100.1" cy="83.7" rx="10.8" ry="10.8"/>
<ellipse transform="matrix(0.9987 -5.111229e-02 5.111229e-02 0.9987 -3.0061 4.7366)" class="st10" cx="91.1" cy="61.1" rx="7.9" ry="7.9"/>
<path class="st12" d="M96.2,68.6c-0.2-4.3,3.1-8,7.5-8.3s8,3.1,8.3,7.5s-3.1,8-7.5,8.3"/>
<circle class="st1" cx="133.9" cy="112.2" r="12.6"/>
<circle class="st2" cx="123.6" cy="92.4" r="10.2"/>
<circle class="st3" cx="141.3" cy="98.7" r="10.4"/>
<circle class="st4" cx="160.7" cy="97.3" r="9"/>
<circle class="st5" cx="151" cy="81.4" r="9.7"/>
<path class="st7" d="M172.5,91.1c-6.5,0-11.9-5.3-11.9-11.9s5.3-11.9,11.9-11.9c6.5,0,11.9,5.3,11.9,11.9S179.1,91.1,172.5,91.1"/>
<circle class="st9" cx="161.7" cy="123" r="10.8"/>
<circle class="st10" cx="138.8" cy="130.8" r="7.9"/>
<path class="st12" d="M146.5,126.1c-4.4,0-7.9-3.5-7.9-7.9c0-4.4,3.5-7.9,7.9-7.9c4.4,0,7.9,3.5,7.9,7.9"/>
<ellipse transform="matrix(0.9908 -0.1354 0.1354 0.9908 -6.9812 20.9464)" class="st1" cx="150.6" cy="61.8" rx="12.6" ry="12.6"/>
<ellipse transform="matrix(0.9908 -0.1354 0.1354 0.9908 -9.3292 22.8467)" class="st2" cx="163.4" cy="80" rx="10.2" ry="10.2"/>
<ellipse transform="matrix(0.9908 -0.1354 0.1354 0.9908 -8.9826 20.3291)" class="st3" cx="145" cy="76.2" rx="10.4" ry="10.4"/>
<ellipse transform="matrix(0.9908 -0.1354 0.1354 0.9908 -9.7021 17.7966)" class="st4" cx="126" cy="80.2" rx="9" ry="9"/>
<ellipse transform="matrix(0.9908 -0.1354 0.1354 0.9908 -11.5374 19.5162)" class="st5" cx="137.8" cy="94.6" rx="9.7" ry="9.7"/>
<path class="st7" d="M115.1,87.9c6.5-0.9,12.5,3.7,13.3,10.1c0.9,6.5-3.7,12.5-10.1,13.3c-6.5,0.9-12.5-3.7-13.3-10.1
	C104.1,94.8,108.6,88.8,115.1,87.9"/>
<ellipse transform="matrix(0.9908 -0.1354 0.1354 0.9908 -6.3161 16.9468)" class="st9" cx="121.5" cy="54.9" rx="10.8" ry="10.8"/>
<ellipse transform="matrix(0.9908 -0.1354 0.1354 0.9908 -4.6396 19.7795)" class="st10" cx="143.1" cy="44" rx="7.9" ry="7.9"/>
<path class="st12" d="M136.2,49.7c4.3-0.6,8.3,2.4,8.9,6.7c0.6,4.3-2.4,8.3-6.7,8.9c-4.3,0.6-8.3-2.4-8.9-6.7"/>
<ellipse transform="matrix(0.9304 -0.3665 0.3665 0.9304 -20.3959 37.9705)" class="st1" cx="89.8" cy="72.7" rx="12.6" ry="12.6"/>
<ellipse transform="matrix(0.9304 -0.3665 0.3665 0.9304 -24.6034 45.1329)" class="st2" cx="106.5" cy="87.4" rx="10.2" ry="10.2"/>
<ellipse transform="matrix(0.9304 -0.3665 0.3665 0.9304 -26.1451 38.3163)" class="st3" cx="87.8" cy="88" rx="10.4" ry="10.4"/>
<ellipse transform="matrix(0.9304 -0.3665 0.3665 0.9304 -30.4461 32.4924)" class="st4" cx="70.3" cy="96.4" rx="9" ry="9"/>
<ellipse transform="matrix(0.9304 -0.3665 0.3665 0.9304 -33.5084 38.6938)" class="st5" cx="85.1" cy="107.6" rx="9.7" ry="9.7"/>
<path class="st7" d="M61.6,106.5c6.1-2.4,13,0.6,15.4,6.7c2.4,6.1-0.6,13-6.7,15.4c-6.1,2.4-13-0.6-15.4-6.7
	C52.5,115.8,55.5,108.9,61.6,106.5"/>
<ellipse transform="matrix(0.9304 -0.3665 0.3665 0.9304 -22.5507 27.0307)" class="st9" cx="59.9" cy="72.9" rx="10.8" ry="10.8"/>
<ellipse transform="matrix(0.9304 -0.3665 0.3665 0.9304 -15.4959 32.7024)" class="st10" cx="78.4" cy="57.2" rx="7.9" ry="7.9"/>
<path class="st12" d="M73,64.4c4-1.6,8.6,0.4,10.2,4.4c1.6,4-0.4,8.6-4.4,10.2c-4,1.6-8.6-0.4-10.2-4.4"/>
<circle class="st1" cx="76.1" cy="117.1" r="12.6"/>
<circle class="st2" cx="65.9" cy="97.3" r="10.2"/>
<circle class="st3" cx="83.5" cy="103.5" r="10.4"/>
<circle class="st4" cx="102.9" cy="102.1" r="9"/>
<circle class="st5" cx="93.2" cy="86.3" r="9.7"/>
<path class="st7" d="M114.7,96c-6.5,0-11.9-5.3-11.9-11.9c0-6.5,5.3-11.9,11.9-11.9c6.5,0,11.9,5.3,11.9,11.9
	C126.6,90.7,121.3,96,114.7,96"/>
<circle class="st9" cx="104" cy="127.8" r="10.8"/>
<circle class="st10" cx="81" cy="135.7" r="7.9"/>
<path class="st12" d="M88.7,131c-4.4,0-7.9-3.5-7.9-7.9s3.5-7.9,7.9-7.9c4.4,0,7.9,3.5,7.9,7.9"/>
<ellipse transform="matrix(0.9991 -4.335703e-02 4.335703e-02 0.9991 -4.3859 4.1608)" class="st1" cx="93.7" cy="103.2" rx="12.6" ry="12.6"/>
<ellipse transform="matrix(0.9991 -4.335703e-02 4.335703e-02 0.9991 -3.888 4.9881)" class="st2" cx="113" cy="92.1" rx="10.2" ry="10.2"/>
<ellipse transform="matrix(0.9991 -4.335703e-02 4.335703e-02 0.9991 -4.6697 4.7672)" class="st3" cx="107.6" cy="110" rx="10.4" ry="10.4"/>
<ellipse transform="matrix(0.9991 -4.335703e-02 4.335703e-02 0.9991 -5.5033 4.8831)" class="st4" cx="109.8" cy="129.3" rx="9" ry="9"/>
<ellipse transform="matrix(0.9991 -4.335703e-02 4.335703e-02 0.9991 -5.0399 5.5402)" class="st5" cx="125.2" cy="119" rx="9.7" ry="9.7"/>
<path class="st7" d="M116.5,140.9c-0.3-6.5,4.8-12.1,11.3-12.4s12.1,4.8,12.4,11.3s-4.8,12.1-11.3,12.4
	C122.3,152.5,116.7,147.4,116.5,140.9"/>
<ellipse transform="matrix(0.9991 -4.335703e-02 4.335703e-02 0.9991 -5.6228 3.7736)" class="st9" cx="84.2" cy="131.5" rx="10.8" ry="10.8"/>
<ellipse transform="matrix(0.9991 -4.335703e-02 4.335703e-02 0.9991 -4.6519 3.368)" class="st10" cx="75.3" cy="108.9" rx="7.9" ry="7.9"/>
<path class="st12" d="M80.4,116.4c-0.2-4.3,3.2-8,7.5-8.2s8,3.2,8.2,7.5s-3.2,8-7.5,8.2"/>
<ellipse transform="matrix(0.9998 -1.894896e-02 1.894896e-02 0.9998 -1.8819 2.3115)" class="st1" cx="121" cy="100.5" rx="12.6" ry="12.6"/>
<ellipse transform="matrix(0.9998 -1.894896e-02 1.894896e-02 0.9998 -2.0861 1.9423)" class="st2" cx="101.4" cy="111.1" rx="10.2" ry="10.2"/>
<ellipse transform="matrix(0.9998 -1.894896e-02 1.894896e-02 0.9998 -1.7483 2.0513)" class="st3" cx="107.4" cy="93.3" rx="10.4" ry="10.4"/>
<ellipse transform="matrix(0.9998 -1.894896e-02 1.894896e-02 0.9998 -1.3824 2.014)" class="st4" cx="105.6" cy="74" rx="9" ry="9"/>
<ellipse transform="matrix(0.9998 -1.894896e-02 1.894896e-02 0.9998 -1.5743 1.7197)" class="st5" cx="90" cy="83.9" rx="9.7" ry="9.7"/>
<path class="st7" d="M99.2,62.2c0.1,6.5-5.1,11.9-11.6,12.1c-6.5,0.1-11.9-5.1-12.1-11.6c-0.1-6.5,5.1-11.9,11.6-12.1
	S99.1,55.7,99.2,62.2"/>
<ellipse transform="matrix(0.9998 -1.894896e-02 1.894896e-02 0.9998 -1.348 2.5004)" class="st9" cx="131.3" cy="72.4" rx="10.8" ry="10.8"/>
<ellipse transform="matrix(0.9998 -1.894896e-02 1.894896e-02 0.9998 -1.7784 2.662)" class="st10" cx="139.6" cy="95.2" rx="7.9" ry="7.9"/>
<path class="st12" d="M134.7,87.6c0.1,4.4-3.4,7.9-7.7,8c-4.4,0.1-7.9-3.4-8-7.7c-0.1-4.4,3.4-7.9,7.7-8"/>
<ellipse transform="matrix(0.763 -0.6464 0.6464 0.763 -12.4085 74.0356)" class="st1" cx="94.8" cy="53.9" rx="12.6" ry="12.6"/>
<ellipse transform="matrix(0.763 -0.6464 0.6464 0.763 -13.0171 89.3535)" class="st2" cx="115.3" cy="62.4" rx="10.2" ry="10.2"/>
<ellipse transform="matrix(0.763 -0.6464 0.6464 0.763 -21.4618 79.6048)" class="st3" cx="97.8" cy="69.1" rx="10.4" ry="10.4"/>
<ellipse transform="matrix(0.763 -0.6464 0.6464 0.763 -33.5314 73.8742)" class="st4" cx="84" cy="82.7" rx="9" ry="9"/>
<ellipse transform="matrix(0.763 -0.6464 0.6464 0.763 -33.1138 86.6313)" class="st5" cx="101.6" cy="88.5" rx="9.7" ry="9.7"/>
<path class="st7" d="M78.9,95c5-4.2,12.5-3.6,16.7,1.4c4.2,5,3.6,12.5-1.4,16.7s-12.5,3.6-16.7-1.4S73.9,99.2,78.9,95"/>
<ellipse transform="matrix(0.763 -0.6464 0.6464 0.763 -25.4413 58.1121)" class="st9" cx="66.5" cy="63.7" rx="10.8" ry="10.8"/>
<ellipse transform="matrix(0.763 -0.6464 0.6464 0.763 -9.0234 61.1969)" class="st10" cx="78.9" cy="42.9" rx="7.9" ry="7.9"/>
<path class="st12" d="M76.1,51.5c3.3-2.8,8.3-2.4,11.1,0.9c2.8,3.3,2.4,8.3-0.9,11.1c-3.3,2.8-8.3,2.4-11.1-0.9"/>
<ellipse transform="matrix(0.436 -0.8999 0.8999 0.436 10.7289 204.9812)" class="st1" cx="168.9" cy="93.9" rx="12.6" ry="12.6"/>
<ellipse transform="matrix(0.436 -0.8999 0.8999 0.436 -8.9808 218.0468)" class="st2" cx="169.5" cy="116.2" rx="10.2" ry="10.2"/>
<ellipse transform="matrix(0.436 -0.8999 0.8999 0.436 -4.4094 198.684)" class="st3" cx="156.3" cy="102.9" rx="10.4" ry="10.4"/>
<ellipse transform="matrix(0.436 -0.8999 0.8999 0.436 -8.136 178.4139)" class="st4" cx="138.3" cy="95.7" rx="9" ry="9"/>
<ellipse transform="matrix(0.436 -0.8999 0.8999 0.436 -23.7162 190.4515)" class="st5" cx="140.1" cy="114.1" rx="9.7" ry="9.7"/>
<path class="st7" d="M124.9,96.1c5.9,2.9,8.4,9.9,5.5,15.8c-2.9,5.9-9.9,8.4-15.8,5.5c-5.9-2.9-8.4-9.9-5.5-15.8
	C112,95.7,119,93.2,124.9,96.1"/>
<ellipse transform="matrix(0.436 -0.8999 0.8999 0.436 18.8826 174.3057)" class="st9" cx="148.5" cy="72.1" rx="10.8" ry="10.8"/>
<ellipse transform="matrix(0.436 -0.8999 0.8999 0.436 29.8438 197.6266)" class="st10" cx="172.6" cy="75" rx="7.9" ry="7.9"/>
<path class="st12" d="M163.6,75.9c3.9,1.9,5.6,6.6,3.7,10.5c-1.9,3.9-6.6,5.6-10.5,3.7c-3.9-1.9-5.6-6.6-3.7-10.5"/>
<circle class="st1" cx="82.8" cy="126.6" r="12.6"/>
<circle class="st2" cx="72.6" cy="106.8" r="10.2"/>
<circle class="st3" cx="90.2" cy="113.1" r="10.4"/>
<circle class="st4" cx="109.6" cy="111.7" r="9"/>
<circle class="st5" cx="99.9" cy="95.9" r="9.7"/>
<path class="st7" d="M121.4,105.5c-6.5,0-11.9-5.3-11.9-11.9s5.3-11.9,11.9-11.9c6.5,0,11.9,5.3,11.9,11.9S128,105.5,121.4,105.5"/>
<circle class="st9" cx="110.7" cy="137.4" r="10.8"/>
<circle class="st10" cx="87.7" cy="145.3" r="7.9"/>
<path class="st12" d="M95.4,140.5c-4.4,0-7.9-3.5-7.9-7.9s3.5-7.9,7.9-7.9s7.9,3.5,7.9,7.9"/>
</svg>
