<?xml version="1.0" encoding="utf-8"?>
<!-- Generator: Adobe Illustrator 21.0.1, SVG Export Plug-In . SVG Version: 6.00 Build 0)  -->
<svg version="1.1" id="Layer_1" xmlns="http://www.w3.org/2000/svg" xmlns:xlink="http://www.w3.org/1999/xlink" x="0px" y="0px"
	 viewBox="0 0 573.5 387.9" style="enable-background:new 0 0 573.5 387.9;" xml:space="preserve">
<style type="text/css">
	.st0{fill:#54B27C;}
	.st1{fill:#458C65;}
	.st2{fill:#199E85;}
	.st3{fill:#F9F9F9;}
	.st4{fill:#F4F4F4;}
	.st5{fill:#60A87A;}
	.st6{fill:#448760;}
	.st7{fill:#EFEFEF;}
	.st8{fill:#54A878;}
</style>
<polygon class="st0" points="120.1,353.6 251.6,61.6 398.2,353.6 "/>
<polygon class="st1" points="251.6,61.6 251.6,353.6 398.2,353.6 "/>
<path class="st2" d="M204.8,230.5"/>
<polygon class="st3" points="251.6,61.6 215.5,141.4 234.5,137.1 234.5,137.1 238.4,143.6 244.5,137.1 251.6,144.9 "/>
<polygon class="st4" points="251.6,61.6 251.6,144.9 259.2,135.3 271.2,140.9 278.4,132.7 290.6,139.2 "/>
<polygon class="st5" points="204.1,387.9 378.8,0 573.5,387.9 "/>
<polygon class="st6" points="378.8,0 378.8,387.9 573.5,387.9 "/>
<polygon class="st7" points="378.8,0 378.8,93.3 387.3,76.7 397,87.1 405.5,78.1 420.7,81.6 "/>
<polygon class="st4" points="378.8,0 342.6,78.8 353.9,78.1 357.7,95.5 368.5,84 378.6,94.5 378.8,83.3 "/>
<polygon class="st8" points="0,387.9 131.5,95.9 278.1,387.9 "/>
<polygon class="st1" points="131.5,95.9 131.5,387.9 278.1,387.9 "/>
<path class="st2" d="M84.7,264.8"/>
<polygon class="st3" points="131.5,95.9 97.3,171.7 102.6,187 114.4,171.3 118.3,180.9 124.3,171.3 131.5,179.2 "/>
<polygon class="st4" points="131.5,95.9 131.5,179.2 139.1,169.6 153,179.2 158.3,167 170.4,173.5 "/>
</svg>
