<?xml version="1.0" encoding="utf-8"?>
<!-- Generator: Adobe Illustrator 21.0.1, SVG Export Plug-In . SVG Version: 6.00 Build 0)  -->
<svg version="1.1" id="Layer_1" xmlns="http://www.w3.org/2000/svg" xmlns:xlink="http://www.w3.org/1999/xlink" x="0px" y="0px"
	 viewBox="0 0 672.9 452" style="enable-background:new 0 0 672.9 452;" xml:space="preserve">
<style type="text/css">
	.st0{fill:#5AA379;}
	.st1{fill:#427F5E;}
	.st2{fill:#57BB86;}
	.st3{fill:#458C65;}
	.st4{fill:#199E85;}
	.st5{fill:#F9F9F9;}
	.st6{fill:#F4F4F4;}
	.st7{fill:#EFEFEF;}
	.st8{fill:#5C9B75;}
	.st9{fill:#448760;}
	.st10{fill:#55B77C;}
	.st11{fill:#498E66;}
</style>
<polygon class="st0" points="199.6,387.9 374.3,0 569.1,387.9 "/>
<polygon class="st1" points="374.3,0 374.3,387.9 569.1,387.9 "/>
<polygon class="st2" points="0,388.3 131.5,96.3 278.1,388.3 "/>
<polygon class="st3" points="131.5,96.3 131.5,388.3 278.1,388.3 "/>
<path class="st4" d="M84.7,265.2"/>
<polygon class="st5" points="131.5,96.3 97.3,172.1 102.6,187.4 114.4,171.7 118.3,181.3 124.3,171.7 131.5,179.6 "/>
<polygon class="st6" points="131.5,96.3 131.5,179.6 139.1,170 153,179.6 158.3,167.4 170.4,173.9 "/>
<polygon class="st7" points="374.3,0 374.3,83.3 381.9,73.7 394.5,84.1 401.1,71.1 413.2,77.6 "/>
<polygon class="st6" points="374.3,0 340.1,75.8 345.4,91.1 357.2,75.5 361.1,85 367.1,75.5 374.3,83.3 "/>
<polygon class="st6" points="347,83.3 357.2,96.3 374.3,83.3 360.6,66.5 "/>
<polygon class="st8" points="303.5,451.7 478.1,63.7 672.9,451.7 "/>
<polygon class="st9" points="478.1,63.7 478.1,451.7 672.9,451.7 "/>
<polygon class="st10" points="103.8,452 235.3,160 382,452 "/>
<polygon class="st11" points="235.3,160 235.3,452 382,452 "/>
<path class="st4" d="M188.5,328.9"/>
<polygon class="st5" points="235.3,160 201.2,235.8 209.4,244.1 218.2,235.5 225.1,244 228.2,235.5 235.3,243.3 "/>
<polygon class="st6" points="235.3,160 235.3,243.3 243.9,235.7 254.9,239.3 262.1,231.1 274.3,237.6 "/>
<polygon class="st7" points="478.1,63.7 478.1,147 486.7,140.5 498.3,147.8 504.9,141.8 517.1,141.4 "/>
<polygon class="st6" points="478.1,63.7 442,142.6 453.2,152.8 461,139.2 467.9,147.8 471,139.2 478.1,147 "/>
</svg>
